<?xml version="1.0" encoding="utf-8"?>
<!-- Generator: Adobe Illustrator 16.0.0, SVG Export Plug-In . SVG Version: 6.00 Build 0)  -->
<!DOCTYPE svg PUBLIC "-//W3C//DTD SVG 1.1//EN" "http://www.w3.org/Graphics/SVG/1.1/DTD/svg11.dtd">
<svg version="1.1" id="Layer_1" xmlns="http://www.w3.org/2000/svg" xmlns:xlink="http://www.w3.org/1999/xlink" x="0px" y="0px"
	 width="200px" height="200px" viewBox="0 0 200 200" enable-background="new 0 0 200 200" xml:space="preserve">
<g>
	<g>
		<g>
			<path fill="#0B678F" d="M148.571,152.321c-2.256-0.13-4.486-0.557-6.632-1.256c-1.284-0.448-2.547-0.965-3.779-1.541l2.408-6.435
				c1.507,0.711,3.068,1.287,4.67,1.735c1.867,0.53,3.797,0.793,5.738,0.781c1.614,0.15,3.238-0.168,4.675-0.921
				c0.832-0.603,1.306-1.581,1.259-2.604c0.016-0.643-0.157-1.278-0.505-1.818c-0.388-0.55-0.883-1.019-1.456-1.373
				c-0.762-0.474-1.567-0.875-2.407-1.201c-0.966-0.391-2.087-0.813-3.354-1.262c-1.234-0.446-2.438-0.942-3.612-1.481
				c-1.143-0.52-2.217-1.191-3.189-1.987c-2.098-1.698-3.27-4.295-3.162-6.993c-0.004-1.205,0.174-2.404,0.53-3.56
				c0.354-1.125,0.911-2.182,1.653-3.102c0.803-0.979,1.792-1.786,2.91-2.379c1.33-0.701,2.767-1.18,4.253-1.426v-6.046h7.053v5.823
				c1.687,0.146,3.362,0.422,5.008,0.841c1.138,0.281,2.25,0.659,3.328,1.118l-1.735,6.711c-1.382-0.57-2.816-1.019-4.282-1.343
				c-1.68-0.376-3.396-0.566-5.119-0.557c-1.35-0.111-2.699,0.2-3.859,0.897c-0.757,0.54-1.195,1.419-1.18,2.346
				c-0.012,0.536,0.113,1.065,0.367,1.538c0.282,0.476,0.676,0.867,1.146,1.149c0.615,0.386,1.262,0.71,1.934,0.979
				c0.763,0.318,1.688,0.663,2.769,1.039c1.559,0.563,3.083,1.222,4.563,1.962c1.31,0.654,2.532,1.474,3.638,2.437
				c1.013,0.895,1.834,1.993,2.404,3.217c0.604,1.355,0.901,2.829,0.866,4.307c0,1.133-0.172,2.256-0.501,3.331
				c-0.348,1.116-0.919,2.155-1.679,3.049c-0.855,0.988-1.892,1.8-3.05,2.402c-1.449,0.737-3.011,1.227-4.616,1.457v6.827h-7.053
				V152.321z"/>
			<path fill="#0B678F" d="M147.999,50.853l-0.021,24.188c-16.347,1.061-31.526,8.846-41.927,21.506
				c-10.621,1.58-21.343,2.357-32.083,2.322c-20.495,0-39.707-2.637-54.09-7.435C5.221,86.547,0,80.915,0,77.27V50.853l2.977,1.781
				c14.565,8.731,41.771,14.159,70.992,14.159c29.251,0,56.484-5.427,71.057-14.154L147.999,50.853z"/>
			<path fill="#0B678F" d="M92.522,134.219c0,2.409,0.146,4.825,0.438,7.218c-6.125,0.52-12.496,0.776-18.99,0.776
				c-20.495,0-39.707-2.637-54.09-7.428C5.221,129.903,0,124.261,0,120.616V94.203l2.977,1.776
				c14.565,8.742,41.771,14.164,70.992,14.164c8.101,0.004,16.195-0.422,24.245-1.271C94.456,116.79,92.509,125.45,92.522,134.219z"
				/>
			<path fill="#0B678F" d="M115.969,181.421c-13.812,2.857-27.893,4.248-41.999,4.15c-20.495,0-39.707-2.637-54.09-7.435
				C5.221,173.249,0,167.617,0,163.968V137.55l2.977,1.786c14.565,8.73,41.771,14.158,70.992,14.158
				c7.331,0,14.532-0.339,21.443-0.987C99.163,164.014,106.336,174.1,115.969,181.421z"/>
			<path fill="#0B678F" d="M19.876,50.192c14.386,4.793,33.598,7.434,54.095,7.434c20.499,0,39.708-2.642,54.097-7.434
				c14.653-4.881,19.874-10.519,19.874-14.164c0-3.646-5.221-9.283-19.874-14.169c-14.389-4.794-33.598-7.435-54.097-7.435
				c-20.497,0-39.709,2.642-54.095,7.435C5.221,26.745,0,32.383,0,36.028C0,39.672,5.221,45.312,19.876,50.192z"/>
		</g>
		<g>
			<path fill="#FFFFFF" d="M73.992,92.277c-19.836,0-38.306-2.517-52.026-7.095c-11.842-3.949-14.833-7.604-15.374-8.418V61.875
				c16.285,7.183,41.143,11.508,67.378,11.508c26.255,0,51.128-4.32,67.429-11.503l-0.004,7.28
				c-14.894,2.405-28.654,9.912-38.732,21.213c-9.262,1.267-18.661,1.905-27.98,1.905L73.992,92.277L73.992,92.277z"/>
			<path fill="#FFFFFF" d="M73.97,135.623c-19.812,0-38.28-2.517-52.008-7.088c-11.844-3.943-14.83-7.611-15.372-8.422v-14.893
				c16.28,7.188,41.135,11.513,67.378,11.513h0.002c4.848,0,9.664-0.15,14.445-0.438c-1.646,5.829-2.492,11.894-2.485,17.934
				c0,0.361,0.002,0.721,0.01,1.086C82.021,135.52,78.016,135.623,73.97,135.623z"/>
			<path fill="#FFFFFF" d="M74.015,178.98c-19.861,0-38.33-2.524-52.05-7.099c-11.842-3.944-14.834-7.605-15.375-8.42v-14.889
				c16.291,7.192,41.143,11.512,67.378,11.512c5.712,0,11.411-0.201,17.006-0.597c2.687,6.466,6.359,12.411,10.893,17.675
				c-8.79,1.209-17.668,1.822-26.526,1.822L74.015,178.98z"/>
			<path fill="#FFFFFF" d="M73.972,51.037c-19.807,0-38.277-2.518-52.013-7.094c-10.175-3.393-13.813-6.57-14.977-7.914
				c1.164-1.344,4.804-4.525,14.977-7.919c13.733-4.576,32.203-7.094,52.013-7.094s38.278,2.518,52.014,7.094
				c10.174,3.394,13.812,6.575,14.975,7.919c-1.163,1.343-4.801,4.521-14.977,7.914C112.25,48.519,93.777,51.037,73.972,51.037z"/>
		</g>
	</g>
	<path fill="#0B678F" d="M151.816,182.454c-26.596,0-48.235-21.639-48.235-48.235s21.64-48.236,48.235-48.236
		c26.567,0.029,48.207,21.668,48.235,48.238C200.052,160.815,178.414,182.454,151.816,182.454z M151.816,92.532
		c-22.986,0-41.685,18.7-41.685,41.687s18.698,41.686,41.685,41.686c22.964-0.028,41.661-18.729,41.687-41.684
		C193.503,111.232,174.803,92.532,151.816,92.532z"/>
</g>
</svg>
