<?xml version="1.0" encoding="utf-8"?>
<!-- Generator: Adobe Illustrator 16.0.0, SVG Export Plug-In . SVG Version: 6.00 Build 0)  -->
<!DOCTYPE svg PUBLIC "-//W3C//DTD SVG 1.1//EN" "http://www.w3.org/Graphics/SVG/1.1/DTD/svg11.dtd">
<svg version="1.1" id="Layer_1" xmlns="http://www.w3.org/2000/svg" xmlns:xlink="http://www.w3.org/1999/xlink" x="0px" y="0px"
	 width="200px" height="200px" viewBox="0 0 200 200" enable-background="new 0 0 200 200" xml:space="preserve">
<g>
	<path fill="none" stroke="#0B678F" stroke-width="5" stroke-miterlimit="10" d="M177.228,143.439h13.939
		c2.965,0,5.367-2.4,5.367-5.37V96.467c0-0.853-0.201-1.693-0.595-2.454l-17.756-34.537c-0.919-1.791-2.76-2.916-4.771-2.916h-58.93
		v86.881"/>
	<polygon fill="none" stroke="#0B678F" stroke-width="5" stroke-miterlimit="10" points="181.794,100.002 167.415,71.041 
		133.789,71.041 133.789,100.002 	"/>
	<polyline fill="none" stroke="#0B678F" stroke-width="5" stroke-miterlimit="10" points="61.389,143.439 117.072,143.439 
		133.789,143.439 	"/>
	<path fill="none" stroke="#0B678F" stroke-width="5" stroke-miterlimit="10" d="M22.775,143.439H3.467V45.031
		c0-4.295,3.481-7.779,7.778-7.779h95.458c4.298,0,7.779,3.483,7.779,7.779v19.573"/>
	<line fill="none" stroke="#0B678F" stroke-width="5" stroke-miterlimit="10" x1="66.214" y1="124.133" x2="114.482" y2="124.133"/>
	<line fill="none" stroke="#0B678F" stroke-width="5" stroke-miterlimit="10" x1="3.467" y1="124.133" x2="13.121" y2="124.133"/>
	<circle fill="none" stroke="#0B678F" stroke-width="5" stroke-miterlimit="10" cx="42.081" cy="143.441" r="19.308"/>
	<path fill="none" stroke="#0B678F" stroke-width="5" stroke-miterlimit="10" d="M177.228,143.439
		c0,10.663-8.641,19.31-19.307,19.31c-10.661,0-19.306-8.646-19.306-19.31c0-10.66,8.645-19.305,19.306-19.305
		C168.587,124.133,177.228,132.779,177.228,143.439z"/>
</g>
</svg>
