<?xml version="1.0" encoding="utf-8"?>
<!-- Generator: Adobe Illustrator 16.0.0, SVG Export Plug-In . SVG Version: 6.00 Build 0)  -->
<!DOCTYPE svg PUBLIC "-//W3C//DTD SVG 1.1//EN" "http://www.w3.org/Graphics/SVG/1.1/DTD/svg11.dtd">
<svg version="1.1" id="Layer_1" xmlns="http://www.w3.org/2000/svg" xmlns:xlink="http://www.w3.org/1999/xlink" x="0px" y="0px"
	 width="187px" height="48.333px" viewBox="-57.167 0 187 48.333" enable-background="new -57.167 0 187 48.333"
	 xml:space="preserve">
<g>
	<g>
		<path fill="#ECF2FA" d="M7.847,24.845c-0.206,0.478-0.488,0.896-0.846,1.254s-0.776,0.641-1.253,0.846
			c-0.478,0.205-0.99,0.308-1.534,0.308H3.072c-0.545,0-1.058-0.103-1.54-0.308s-0.901-0.487-1.259-0.846
			c-0.359-0.358-0.64-0.776-0.845-1.254c-0.206-0.478-0.308-0.988-0.308-1.534V14.69c0-0.545,0.103-1.056,0.308-1.534
			c0.205-0.478,0.486-0.895,0.845-1.254c0.358-0.358,0.778-0.64,1.259-0.846c0.481-0.205,0.995-0.308,1.54-0.308h1.142
			c0.545,0,1.056,0.103,1.534,0.308c0.478,0.206,0.895,0.488,1.253,0.846c0.358,0.359,0.64,0.776,0.846,1.254
			c0.205,0.478,0.308,0.989,0.308,1.534v8.621C8.154,23.856,8.052,24.368,7.847,24.845z M6.71,14.69
			c0-0.358-0.067-0.692-0.201-1.001c-0.134-0.309-0.317-0.581-0.549-0.812c-0.232-0.231-0.502-0.414-0.812-0.548
			c-0.309-0.134-0.643-0.202-1.002-0.202H3.139c-0.358,0-0.692,0.067-1.002,0.202c-0.31,0.134-0.582,0.317-0.817,0.548
			c-0.235,0.231-0.419,0.502-0.554,0.812c-0.134,0.31-0.201,0.643-0.201,1.001v8.621c0,0.358,0.068,0.692,0.202,1.002
			s0.319,0.582,0.554,0.817c0.236,0.234,0.508,0.42,0.818,0.554c0.309,0.135,0.643,0.202,1.002,0.202h1.007
			c0.359,0,0.693-0.067,1.002-0.202c0.31-0.134,0.581-0.318,0.812-0.554c0.231-0.235,0.415-0.508,0.549-0.817
			c0.134-0.31,0.201-0.644,0.201-1.002V14.69z"/>
		<path fill="#ECF2FA" d="M20.902,24.621c-0.205,0.478-0.487,0.896-0.845,1.254c-0.358,0.358-0.778,0.641-1.26,0.846
			c-0.481,0.205-0.995,0.309-1.54,0.309h-5.083V10.974h5.083c0.545,0,1.058,0.103,1.54,0.308c0.481,0.206,0.901,0.488,1.26,0.846
			c0.358,0.358,0.64,0.778,0.845,1.259c0.205,0.481,0.308,0.995,0.308,1.54v0.157c0,0.38-0.05,0.744-0.151,1.092
			c-0.101,0.347-0.245,0.669-0.432,0.968c-0.187,0.299-0.407,0.569-0.66,0.812c-0.254,0.243-0.537,0.447-0.851,0.611
			c0.314,0.164,0.597,0.368,0.851,0.61c0.253,0.242,0.474,0.515,0.66,0.816c0.187,0.303,0.33,0.627,0.432,0.975
			c0.101,0.347,0.151,0.711,0.151,1.092v1.029C21.211,23.632,21.108,24.143,20.902,24.621z M19.766,14.926
			c0-0.358-0.067-0.692-0.202-1.002c-0.134-0.309-0.319-0.582-0.554-0.817s-0.508-0.42-0.817-0.554
			c-0.31-0.134-0.644-0.202-1.002-0.202H13.62v5.53h3.571c0.359,0,0.693-0.067,1.002-0.202s0.582-0.319,0.818-0.554
			c0.234-0.235,0.419-0.507,0.554-0.817c0.134-0.31,0.202-0.644,0.202-1.002L19.766,14.926L19.766,14.926z M19.766,21.822
			c0-0.358-0.067-0.692-0.202-1.002s-0.319-0.58-0.554-0.813c-0.235-0.23-0.508-0.413-0.817-0.548
			c-0.31-0.134-0.644-0.202-1.002-0.202H13.62v6.393h3.571c0.359,0,0.693-0.067,1.002-0.201c0.309-0.135,0.582-0.317,0.818-0.549
			c0.234-0.23,0.419-0.502,0.554-0.812c0.134-0.309,0.202-0.644,0.202-1.002L19.766,21.822L19.766,21.822z"/>
		<path fill="#ECF2FA" d="M32.083,27.028l-4.355-6.852h-1.981v6.852h-1.445V10.974h5.094c0.545,0,1.056,0.103,1.534,0.308
			c0.478,0.206,0.896,0.488,1.254,0.846c0.358,0.358,0.64,0.778,0.846,1.259c0.205,0.481,0.308,0.995,0.308,1.54v1.298
			c0,0.545-0.103,1.058-0.308,1.54c-0.206,0.48-0.487,0.901-0.846,1.259s-0.776,0.64-1.254,0.846
			c-0.478,0.205-0.989,0.308-1.534,0.308l4.355,6.852H32.083z M31.894,14.926c0-0.358-0.067-0.692-0.202-1.002
			c-0.134-0.309-0.317-0.582-0.548-0.817c-0.232-0.235-0.503-0.42-0.812-0.554c-0.31-0.134-0.644-0.202-1.002-0.202h-3.583v6.449
			h3.583c0.358,0,0.692-0.067,1.001-0.202c0.309-0.134,0.581-0.318,0.812-0.554c0.231-0.234,0.414-0.507,0.548-0.816
			c0.134-0.31,0.202-0.644,0.202-1.002L31.894,14.926L31.894,14.926z"/>
		<path fill="#ECF2FA" d="M40.975,12.351v14.677H39.53V12.351h-3.829v-1.377h9.102v1.377H40.975z"/>
		<path fill="#ECF2FA" d="M62.245,24.621c-0.206,0.478-0.487,0.896-0.846,1.254c-0.358,0.358-0.778,0.641-1.26,0.846
			c-0.481,0.205-0.995,0.309-1.54,0.309h-5.083V10.974H58.6c0.545,0,1.058,0.103,1.54,0.308c0.481,0.206,0.901,0.488,1.26,0.846
			c0.358,0.358,0.639,0.778,0.846,1.259c0.205,0.481,0.308,0.995,0.308,1.54v8.162C62.553,23.632,62.45,24.143,62.245,24.621z
			 M61.108,14.926c0-0.358-0.067-0.692-0.202-1.002c-0.134-0.309-0.319-0.582-0.554-0.817c-0.235-0.235-0.508-0.42-0.817-0.554
			c-0.31-0.134-0.643-0.202-1.001-0.202h-3.572v13.3h3.572c0.358,0,0.692-0.067,1.001-0.202c0.309-0.134,0.583-0.316,0.817-0.548
			s0.42-0.502,0.554-0.812s0.202-0.644,0.202-1.002L61.108,14.926L61.108,14.926z"/>
		<path fill="#ECF2FA" d="M66.563,27.028V10.974h9.034v1.377h-7.59v5.967h6.146v1.377h-6.146v5.956h7.59v1.377H66.563z"/>
		<path fill="#ECF2FA" d="M78.925,27.028V10.974h1.444v16.054H78.925z M86.762,27.028l-6.046-8.026l6.046-8.027h1.791l-6.168,8.027
			l6.168,8.026H86.762z"/>
		<path fill="#ECF2FA" d="M97.445,23.289h-5.083l-1.052,3.739h-1.501l4.703-16.054h0.761l4.726,16.054h-1.489L97.445,23.289z
			 M92.754,21.912h4.31l-2.115-7.4l-0.045-0.594l-0.045,0.594L92.754,21.912z"/>
		<path fill="#ECF2FA" d="M111.357,24.621c-0.205,0.478-0.486,0.896-0.846,1.254c-0.357,0.358-0.777,0.641-1.26,0.846
			c-0.48,0.205-0.994,0.309-1.539,0.309h-5.082V10.974h5.082c0.545,0,1.057,0.103,1.539,0.308c0.482,0.206,0.902,0.488,1.26,0.846
			c0.359,0.358,0.641,0.778,0.846,1.259c0.205,0.481,0.309,0.995,0.309,1.54v8.162C111.666,23.632,111.563,24.143,111.357,24.621z
			 M110.221,14.926c0-0.358-0.066-0.692-0.201-1.002c-0.135-0.309-0.32-0.582-0.555-0.817s-0.508-0.42-0.816-0.554
			c-0.311-0.134-0.645-0.202-1.002-0.202h-3.572v13.3h3.572c0.357,0,0.691-0.067,1.002-0.202c0.309-0.134,0.582-0.316,0.816-0.548
			s0.42-0.502,0.555-0.812s0.201-0.644,0.201-1.002V14.926z"/>
		<path fill="#ECF2FA" d="M121.699,23.289h-5.084l-1.051,3.739h-1.502l4.703-16.054h0.76l4.727,16.054h-1.49L121.699,23.289z
			 M117.008,21.912h4.311l-2.115-7.4l-0.045-0.594l-0.045,0.594L117.008,21.912z"/>
	</g>
	<g>
		<path fill="#ECF2FA" d="M24.623,40.41l-2.869-5.008l-0.058-0.299v5.308h-0.619V33.53h0.322l2.869,5.014l0.062,0.294V33.53h0.619
			v6.88H24.623z"/>
		<path fill="#ECF2FA" d="M29.35,38.807h-2.178l-0.451,1.603h-0.643l2.015-6.88h0.326l2.025,6.88h-0.638L29.35,38.807z
			 M27.339,38.217h1.847l-0.907-3.172l-0.019-0.253l-0.019,0.253L27.339,38.217z"/>
		<path fill="#ECF2FA" d="M34.525,39.475c-0.088,0.205-0.208,0.384-0.362,0.536c-0.154,0.153-0.333,0.275-0.538,0.363
			c-0.205,0.087-0.424,0.131-0.657,0.131h-0.196c-0.233,0-0.454-0.044-0.66-0.131c-0.207-0.088-0.387-0.21-0.54-0.363
			c-0.153-0.152-0.274-0.332-0.362-0.536c-0.089-0.206-0.133-0.425-0.133-0.657v-0.273l0.619-0.101v0.374
			c0,0.153,0.029,0.297,0.086,0.429c0.058,0.133,0.137,0.249,0.237,0.351c0.101,0.101,0.217,0.18,0.351,0.237
			c0.132,0.058,0.276,0.086,0.429,0.086h0.139c0.15,0,0.293-0.028,0.427-0.086c0.134-0.058,0.251-0.137,0.351-0.237
			c0.099-0.102,0.178-0.218,0.235-0.351c0.058-0.132,0.086-0.275,0.086-0.429V33.53h0.619v5.287
			C34.657,39.05,34.613,39.269,34.525,39.475z"/>
		<path fill="#ECF2FA" d="M38.861,38.807h-2.178l-0.451,1.603h-0.643l2.015-6.88h0.326l2.025,6.88h-0.638L38.861,38.807z
			 M36.851,38.217h1.847l-0.906-3.172l-0.02-0.253l-0.019,0.253L36.851,38.217z"/>
		<path fill="#ECF2FA" d="M45.32,40.41v-4.717l-0.043,0.293l-1.598,4.424h-0.326l-1.612-4.424l-0.039-0.293v4.717h-0.619v-6.88
			h0.321l2.087,5.643l0.019,0.254l0.019-0.254l2.083-5.643h0.326v6.88H45.32z"/>
		<path fill="#ECF2FA" d="M53.805,40.41l-2.869-5.008l-0.058-0.299v5.308h-0.619V33.53h0.322l2.869,5.014l0.063,0.294V33.53h0.619
			v6.88H53.805z"/>
		<path fill="#ECF2FA" d="M58.532,38.807h-2.178l-0.451,1.603h-0.643l2.015-6.88h0.326l2.025,6.88h-0.638L58.532,38.807z
			 M56.521,38.217h1.847l-0.906-3.172l-0.019-0.253l-0.019,0.253L56.521,38.217z"/>
		<path fill="#ECF2FA" d="M64.495,36.735c-0.088,0.205-0.208,0.384-0.362,0.537s-0.334,0.274-0.54,0.362
			c-0.206,0.088-0.426,0.133-0.659,0.133h-1.559v2.644h-0.62V33.53h2.179c0.233,0,0.454,0.043,0.659,0.132
			c0.206,0.088,0.387,0.208,0.54,0.362c0.154,0.153,0.274,0.334,0.362,0.54c0.088,0.205,0.132,0.426,0.132,0.659v0.854
			C64.626,36.311,64.583,36.53,64.495,36.735z M64.008,35.223c0-0.153-0.029-0.297-0.087-0.43s-0.137-0.25-0.237-0.351
			c-0.101-0.101-0.219-0.18-0.351-0.237c-0.132-0.058-0.276-0.086-0.429-0.086h-1.53v3.057h1.53c0.153,0,0.297-0.029,0.429-0.087
			c0.132-0.058,0.25-0.136,0.351-0.235c0.1-0.099,0.179-0.215,0.237-0.348s0.087-0.275,0.087-0.43V35.223z"/>
		<path fill="#ECF2FA" d="M69.692,39.475c-0.088,0.205-0.208,0.384-0.362,0.536c-0.155,0.153-0.333,0.275-0.537,0.363
			c-0.206,0.087-0.424,0.131-0.658,0.131h-0.489c-0.234,0-0.454-0.044-0.66-0.131c-0.206-0.088-0.387-0.21-0.54-0.363
			c-0.154-0.152-0.274-0.332-0.362-0.536c-0.089-0.204-0.132-0.425-0.132-0.657V33.53h0.619v5.287c0,0.153,0.028,0.297,0.086,0.43
			c0.058,0.133,0.137,0.249,0.237,0.351c0.101,0.1,0.218,0.179,0.351,0.236c0.131,0.058,0.275,0.087,0.428,0.087h0.433
			c0.153,0,0.296-0.029,0.428-0.087c0.133-0.058,0.25-0.137,0.348-0.236c0.1-0.102,0.178-0.218,0.235-0.351s0.086-0.276,0.086-0.43
			V33.53h0.619v5.287C69.824,39.05,69.78,39.269,69.692,39.475z"/>
		<path fill="#ECF2FA" d="M74.801,40.41v-3.142h-2.634v3.142h-0.62v-6.88h0.62v3.147h2.634V33.53h0.618v6.88H74.801z"/>
		<path fill="#ECF2FA" d="M79.82,38.807h-2.179l-0.451,1.603h-0.643l2.015-6.88h0.327l2.024,6.88h-0.638L79.82,38.807z
			 M77.81,38.217h1.846l-0.906-3.172l-0.019-0.253l-0.02,0.253L77.81,38.217z"/>
		<path fill="#ECF2FA" d="M85.588,40.41l-2.869-5.008l-0.058-0.299v5.308h-0.619V33.53h0.321l2.87,5.014l0.063,0.294V33.53h0.618
			v6.88H85.588z"/>
		<path fill="#ECF2FA" d="M90.316,38.807h-2.179l-0.45,1.603h-0.644l2.015-6.88h0.326l2.025,6.88h-0.639L90.316,38.807z
			 M88.306,38.217h1.846l-0.906-3.172l-0.02-0.253l-0.019,0.253L88.306,38.217z"/>
		<path fill="#ECF2FA" d="M96.177,39.475c-0.089,0.205-0.209,0.384-0.362,0.536c-0.154,0.153-0.333,0.275-0.537,0.363
			c-0.205,0.087-0.424,0.131-0.658,0.131h-0.488c-0.234,0-0.455-0.044-0.661-0.131c-0.206-0.088-0.386-0.21-0.54-0.363
			c-0.154-0.152-0.274-0.332-0.362-0.536s-0.132-0.425-0.132-0.657v-3.695c0-0.232,0.043-0.452,0.132-0.656
			c0.088-0.205,0.208-0.384,0.362-0.537c0.153-0.154,0.334-0.274,0.54-0.362c0.206-0.089,0.426-0.132,0.661-0.132h0.488
			c0.234,0,0.453,0.043,0.658,0.132c0.204,0.088,0.384,0.208,0.537,0.362c0.153,0.153,0.273,0.332,0.362,0.537
			c0.088,0.204,0.132,0.424,0.132,0.656v0.279l-0.619,0.095v-0.374c0-0.153-0.028-0.297-0.086-0.429s-0.136-0.249-0.235-0.348
			c-0.099-0.099-0.215-0.178-0.349-0.235c-0.132-0.058-0.274-0.087-0.428-0.087H94.16c-0.153,0-0.296,0.029-0.428,0.087
			c-0.133,0.058-0.25,0.137-0.351,0.235c-0.101,0.099-0.181,0.216-0.238,0.348c-0.058,0.132-0.086,0.275-0.086,0.429v3.695
			c0,0.153,0.028,0.297,0.086,0.429c0.057,0.133,0.137,0.249,0.238,0.351c0.101,0.101,0.217,0.18,0.351,0.237
			c0.131,0.058,0.275,0.086,0.428,0.086h0.433c0.153,0,0.296-0.028,0.428-0.086c0.134-0.058,0.25-0.137,0.349-0.237
			c0.1-0.102,0.178-0.218,0.235-0.351c0.058-0.132,0.086-0.275,0.086-0.429v-0.375l0.619,0.101v0.273
			C96.309,39.05,96.265,39.269,96.177,39.475z"/>
		<path fill="#ECF2FA" d="M100.514,38.807h-2.179l-0.45,1.603h-0.643l2.015-6.88h0.326l2.025,6.88h-0.639L100.514,38.807z
			 M98.503,38.217h1.847l-0.906-3.172l-0.02-0.253l-0.02,0.253L98.503,38.217z"/>
	</g>
</g>
<path fill="#ECF2FA" d="M-48.573,46.633c-1.143,0-2.072-0.928-2.072-2.069v-0.405c0-0.545,0.219-1.07,0.598-1.457
	c-0.379-0.386-0.598-0.911-0.598-1.453V40.84c0-0.542,0.219-1.067,0.598-1.452c-0.379-0.386-0.598-0.911-0.598-1.455v-0.407
	c0-1.142,0.929-2.07,2.072-2.07h0.002V20.567h-0.149c-0.339,0-0.616-0.277-0.616-0.618v-5.786h-0.075
	c-0.229,0-0.436-0.125-0.543-0.328c-0.108-0.199-0.097-0.443,0.031-0.632l3.954-5.934V2.314c0-0.339,0.276-0.616,0.617-0.616
	c0.096,0.001,0.172,0.015,0.243,0.042l3.792,1.481c0.238,0.094,0.393,0.319,0.393,0.574c0,0.256-0.155,0.483-0.393,0.576
	l-3.418,1.335v1.565l3.954,5.932c0.127,0.189,0.138,0.433,0.03,0.634c-0.1,0.187-0.287,0.308-0.495,0.325v5.788
	c0,0.341-0.277,0.618-0.618,0.618h-0.058v1.247c1.394-1.048,2.965-1.886,4.68-2.496c2.079-0.739,4.279-1.114,6.542-1.114
	c2.262,0,4.462,0.375,6.541,1.114c1.715,0.61,3.285,1.448,4.679,2.496v-1.247h-0.15c-0.341,0-0.617-0.277-0.617-0.618v-5.786h-0.072
	c-0.229,0-0.435-0.125-0.545-0.326c-0.107-0.201-0.096-0.444,0.032-0.634l3.955-5.934V2.314c0-0.339,0.276-0.616,0.616-0.616
	c0.096,0.001,0.17,0.015,0.241,0.042l3.795,1.481c0.239,0.094,0.392,0.319,0.392,0.574c0,0.256-0.152,0.483-0.392,0.576
	l-3.419,1.335v1.565l3.954,5.932c0.126,0.189,0.139,0.433,0.031,0.634c-0.101,0.187-0.288,0.308-0.497,0.325v5.788
	c0,0.341-0.276,0.618-0.616,0.618h-0.058v14.889h0.046c1.143,0,2.07,0.929,2.07,2.072v0.405c0,0.545-0.218,1.069-0.598,1.455
	c0.379,0.385,0.598,0.91,0.598,1.452v0.408c0,0.542-0.208,1.052-0.579,1.434c0.367,0.399,0.579,0.932,0.579,1.477v0.405
	c0,1.142-0.928,2.069-2.07,2.069H-48.573L-48.573,46.633z M-12.786,45.401c0.461,0,0.838-0.377,0.838-0.837v-0.405
	c0-0.478-0.401-0.841-0.565-0.841h-8.481v2.083H-12.786L-12.786,45.401z M-22.229,45.401v-9.892c0-0.412-0.335-0.746-0.749-0.746
	c-0.412,0-0.748,0.334-0.748,0.746v9.892H-22.229z M-24.958,45.401V36.69h-11.484v8.711H-24.958z M-37.677,45.401v-9.892
	c0-0.412-0.335-0.746-0.748-0.746c-0.412,0-0.748,0.334-0.748,0.746v9.892H-37.677z M-48.573,43.318
	c-0.462,0-0.838,0.377-0.838,0.841v0.405c0,0.46,0.376,0.837,0.838,0.837h8.166v-2.083H-48.573L-48.573,43.318z M-12.786,42.085
	c0.461,0,0.838-0.376,0.838-0.837V40.84c0-0.461-0.376-0.837-0.838-0.837h-8.209v2.082H-12.786L-12.786,42.085z M-48.573,40.003
	c-0.462,0-0.838,0.376-0.838,0.837v0.408c0,0.461,0.376,0.837,0.838,0.837h8.166v-2.082H-48.573L-48.573,40.003z M-12.786,38.77
	c0.461,0,0.838-0.374,0.838-0.837v-0.405c0-0.462-0.376-0.838-0.838-0.838h-8.209v2.08H-12.786L-12.786,38.77z M-48.573,36.69
	c-0.462,0-0.838,0.376-0.838,0.838v0.405c0,0.463,0.376,0.837,0.838,0.837h8.166v-2.08H-48.573z M-14.075,35.456
	c-0.135-4.857-1.893-8.936-5.093-11.806c-0.074-0.042-0.14-0.099-0.19-0.168c-2.966-2.57-7.098-4.043-11.343-4.043
	c-4.246,0-8.378,1.473-11.343,4.043c-0.052,0.07-0.117,0.126-0.191,0.168c-3.2,2.871-4.958,6.949-5.093,11.806h4.185
	c0.137-3.566,1.481-6.578,3.894-8.724c1.145-1.017,2.488-1.803,3.995-2.338c1.448-0.516,2.979-0.777,4.554-0.777
	c1.574,0,3.105,0.261,4.554,0.777c1.507,0.535,2.851,1.323,3.994,2.338c2.413,2.146,3.756,5.157,3.894,8.724H-14.075z
	 M-19.493,35.456c-0.136-3.201-1.335-5.894-3.479-7.801c-2.033-1.807-4.78-2.804-7.729-2.804c-5.218,0-10.907,3.321-11.208,10.604
	h1.502c0.028-1.067,0.906-1.929,1.981-1.929c1.075,0,1.953,0.861,1.982,1.929h11.486c0.028-1.067,0.906-1.929,1.981-1.929
	c1.075,0,1.952,0.861,1.98,1.929H-19.493z M-47.336,29.006c0.912-2.388,2.314-4.457,4.181-6.167v-2.272h-4.181V29.006z
	 M-18.246,22.839c1.866,1.71,3.268,3.779,4.18,6.167v-8.439h-4.18V22.839z M-13.392,19.333v-5.17h-5.621v5.17H-13.392
	L-13.392,19.333z M-42.482,19.333v-5.17h-5.621v5.17H-42.482L-42.482,19.333z M-13.358,12.929l-2.905-4.359l-2.905,4.359H-13.358z
	 M-42.448,12.929l-2.904-4.359l-2.905,4.359H-42.448z M-15.627,4.374l1.48-0.579l-1.48-0.576V4.374z M-44.717,4.374l1.48-0.579
	l-1.48-0.576V4.374z"/>
</svg>
