<?xml version="1.0" encoding="utf-8"?>
<!-- Generator: Adobe Illustrator 16.0.0, SVG Export Plug-In . SVG Version: 6.00 Build 0)  -->
<!DOCTYPE svg PUBLIC "-//W3C//DTD SVG 1.1//EN" "http://www.w3.org/Graphics/SVG/1.1/DTD/svg11.dtd">
<svg version="1.1" id="Layer_1" xmlns="http://www.w3.org/2000/svg" xmlns:xlink="http://www.w3.org/1999/xlink" x="0px" y="0px"
	 width="187px" height="48.333px" viewBox="0 0 187 48.333" enable-background="new 0 0 187 48.333" xml:space="preserve">
<g>
	<g>
		<path fill="#FFFFFF" d="M63.481,24.845c-0.206,0.478-0.488,0.896-0.846,1.254c-0.358,0.358-0.776,0.642-1.253,0.846
			c-0.478,0.205-0.99,0.308-1.534,0.308h-1.142c-0.545,0-1.058-0.103-1.54-0.308c-0.482-0.204-0.901-0.487-1.259-0.846
			c-0.359-0.358-0.64-0.776-0.845-1.254c-0.206-0.478-0.308-0.988-0.308-1.534V14.69c0-0.545,0.103-1.056,0.308-1.534
			c0.205-0.478,0.486-0.896,0.845-1.254c0.358-0.358,0.778-0.64,1.259-0.846c0.481-0.205,0.995-0.308,1.54-0.308h1.142
			c0.545,0,1.056,0.103,1.534,0.308c0.478,0.206,0.895,0.488,1.253,0.846c0.358,0.359,0.64,0.776,0.846,1.254
			c0.205,0.478,0.308,0.989,0.308,1.534v8.621C63.788,23.856,63.686,24.368,63.481,24.845z M62.344,14.69
			c0-0.358-0.067-0.692-0.201-1.001c-0.134-0.309-0.317-0.581-0.549-0.812c-0.232-0.231-0.502-0.414-0.812-0.548
			c-0.309-0.134-0.643-0.202-1.002-0.202h-1.007c-0.358,0-0.692,0.067-1.002,0.202c-0.31,0.134-0.582,0.317-0.817,0.548
			c-0.235,0.231-0.419,0.502-0.554,0.812c-0.134,0.31-0.201,0.643-0.201,1.001v8.621c0,0.358,0.068,0.692,0.202,1.002
			c0.134,0.31,0.319,0.582,0.554,0.816c0.236,0.233,0.508,0.42,0.818,0.555c0.309,0.135,0.643,0.201,1.002,0.201h1.007
			c0.359,0,0.693-0.066,1.002-0.201c0.31-0.135,0.581-0.318,0.812-0.555c0.231-0.234,0.415-0.507,0.549-0.816
			c0.134-0.31,0.201-0.644,0.201-1.002V14.69H62.344z"/>
		<path fill="#FFFFFF" d="M76.536,24.621c-0.205,0.478-0.487,0.896-0.845,1.254c-0.358,0.356-0.778,0.641-1.26,0.846
			c-0.481,0.205-0.995,0.309-1.54,0.309h-5.083V10.974h5.083c0.545,0,1.058,0.103,1.54,0.308c0.481,0.206,0.901,0.488,1.26,0.846
			c0.358,0.358,0.64,0.778,0.845,1.259s0.308,0.995,0.308,1.54v0.157c0,0.38-0.05,0.744-0.151,1.092
			c-0.101,0.347-0.245,0.669-0.432,0.968s-0.407,0.569-0.66,0.812c-0.254,0.243-0.537,0.447-0.851,0.611
			c0.314,0.164,0.597,0.368,0.851,0.61c0.253,0.242,0.474,0.515,0.66,0.816c0.187,0.303,0.33,0.627,0.432,0.975
			c0.101,0.347,0.151,0.711,0.151,1.092v1.029C76.845,23.632,76.742,24.143,76.536,24.621z M75.4,14.926
			c0-0.358-0.067-0.692-0.202-1.002c-0.134-0.309-0.319-0.582-0.554-0.817s-0.508-0.42-0.817-0.554
			c-0.31-0.134-0.644-0.202-1.002-0.202h-3.571v5.53h3.571c0.359,0,0.693-0.067,1.002-0.202c0.309-0.135,0.582-0.319,0.818-0.554
			c0.234-0.235,0.419-0.507,0.554-0.817c0.134-0.31,0.202-0.644,0.202-1.002L75.4,14.926L75.4,14.926z M75.4,21.822
			c0-0.358-0.067-0.692-0.202-1.002c-0.135-0.31-0.319-0.58-0.554-0.813c-0.235-0.23-0.508-0.413-0.817-0.548
			c-0.31-0.134-0.644-0.202-1.002-0.202h-3.571v6.393h3.571c0.359,0,0.693-0.067,1.002-0.2c0.309-0.136,0.582-0.318,0.818-0.55
			c0.234-0.229,0.419-0.502,0.554-0.812c0.134-0.309,0.202-0.644,0.202-1.002L75.4,21.822L75.4,21.822z"/>
		<path fill="#FFFFFF" d="M87.717,27.028l-4.355-6.852h-1.981v6.852h-1.445V10.974h5.094c0.545,0,1.056,0.103,1.534,0.308
			c0.478,0.206,0.896,0.488,1.254,0.846s0.64,0.778,0.846,1.259c0.205,0.481,0.308,0.995,0.308,1.54v1.298
			c0,0.545-0.103,1.058-0.308,1.54c-0.206,0.48-0.487,0.901-0.846,1.259s-0.776,0.64-1.254,0.846
			c-0.478,0.205-0.989,0.308-1.534,0.308l4.355,6.852h-1.668V27.028z M87.528,14.926c0-0.358-0.067-0.692-0.202-1.002
			c-0.134-0.309-0.317-0.582-0.548-0.817c-0.232-0.235-0.503-0.42-0.812-0.554c-0.31-0.134-0.644-0.202-1.002-0.202h-3.583V18.8
			h3.583c0.358,0,0.692-0.067,1.001-0.202c0.309-0.134,0.581-0.318,0.812-0.554c0.231-0.234,0.414-0.507,0.548-0.816
			c0.134-0.31,0.202-0.644,0.202-1.002L87.528,14.926L87.528,14.926z"/>
		<path fill="#FFFFFF" d="M96.609,12.351v14.677h-1.445V12.351h-3.829v-1.377h9.103v1.377H96.609z"/>
		<path fill="#FFFFFF" d="M117.879,24.621c-0.206,0.478-0.486,0.896-0.846,1.254c-0.358,0.356-0.778,0.641-1.26,0.846
			c-0.482,0.205-0.996,0.309-1.541,0.309h-5.082V10.974h5.084c0.545,0,1.058,0.103,1.539,0.308c0.48,0.206,0.9,0.488,1.26,0.846
			s0.64,0.778,0.847,1.259c0.205,0.481,0.308,0.995,0.308,1.54v8.162C118.188,23.632,118.084,24.143,117.879,24.621z
			 M116.742,14.926c0-0.358-0.067-0.692-0.202-1.002c-0.134-0.309-0.319-0.582-0.554-0.817c-0.235-0.235-0.51-0.42-0.817-0.554
			c-0.31-0.134-0.644-0.202-1.001-0.202h-3.572v13.3h3.572c0.357,0,0.691-0.066,1.001-0.201s0.583-0.316,0.817-0.549
			c0.232-0.232,0.42-0.502,0.554-0.812s0.202-0.644,0.202-1.002V14.926L116.742,14.926z"/>
		<path fill="#FFFFFF" d="M122.197,27.028V10.974h9.033v1.377h-7.59v5.967h6.146v1.377h-6.146v5.956h7.59v1.377H122.197z"/>
		<path fill="#FFFFFF" d="M134.559,27.028V10.974h1.444v16.054H134.559z M142.396,27.028l-6.047-8.026l6.047-8.027h1.791
			l-6.17,8.027l6.17,8.026H142.396z"/>
		<path fill="#FFFFFF" d="M153.079,23.289h-5.083l-1.053,3.739h-1.5l4.701-16.054h0.763l4.726,16.054h-1.488L153.079,23.289z
			 M148.389,21.912h4.311l-2.115-7.4l-0.045-0.594l-0.045,0.594L148.389,21.912z"/>
		<path fill="#FFFFFF" d="M166.991,24.621c-0.205,0.478-0.486,0.896-0.847,1.254c-0.356,0.356-0.776,0.641-1.261,0.846
			c-0.479,0.205-0.993,0.309-1.538,0.309h-5.082V10.974h5.082c0.545,0,1.057,0.103,1.538,0.308c0.481,0.206,0.901,0.488,1.261,0.846
			c0.358,0.358,0.642,0.778,0.847,1.259c0.204,0.481,0.309,0.995,0.309,1.54v8.162C167.3,23.632,167.195,24.143,166.991,24.621z
			 M165.854,14.926c0-0.358-0.065-0.692-0.201-1.002c-0.135-0.309-0.318-0.582-0.555-0.817c-0.233-0.235-0.508-0.42-0.815-0.554
			c-0.312-0.134-0.646-0.202-1.003-0.202h-3.57v13.3h3.57c0.357,0,0.691-0.066,1.003-0.201c0.31-0.135,0.582-0.316,0.815-0.549
			c0.234-0.232,0.42-0.502,0.555-0.812c0.136-0.31,0.201-0.644,0.201-1.002V14.926z"/>
		<path fill="#FFFFFF" d="M177.333,23.289h-5.084l-1.051,3.739h-1.503l4.703-16.054h0.761l4.728,16.054h-1.49L177.333,23.289z
			 M172.643,21.912h4.311l-2.114-7.4l-0.045-0.594l-0.046,0.594L172.643,21.912z"/>
	</g>
	<g>
		<path fill="#FFFFFF" d="M80.257,40.411l-2.869-5.009l-0.058-0.299v5.308h-0.619V33.53h0.322l2.869,5.014l0.062,0.295V33.53h0.619
			v6.881H80.257z"/>
		<path fill="#FFFFFF" d="M84.984,38.807h-2.178l-0.451,1.604h-0.643l2.015-6.881h0.326l2.025,6.881H85.44L84.984,38.807z
			 M82.973,38.217h1.847l-0.907-3.172l-0.019-0.254l-0.019,0.254L82.973,38.217z"/>
		<path fill="#FFFFFF" d="M90.159,39.475c-0.088,0.205-0.208,0.384-0.362,0.535c-0.154,0.154-0.333,0.275-0.538,0.363
			c-0.205,0.088-0.424,0.131-0.657,0.131h-0.196c-0.233,0-0.454-0.043-0.66-0.131c-0.207-0.088-0.387-0.209-0.54-0.363
			c-0.153-0.151-0.274-0.331-0.362-0.535c-0.089-0.206-0.133-0.426-0.133-0.657v-0.272l0.619-0.102v0.374
			c0,0.153,0.029,0.298,0.086,0.429c0.058,0.133,0.137,0.25,0.237,0.353c0.101,0.103,0.217,0.18,0.351,0.235
			c0.132,0.06,0.276,0.086,0.429,0.086h0.139c0.15,0,0.293-0.026,0.427-0.086c0.134-0.058,0.251-0.137,0.351-0.235
			c0.099-0.103,0.178-0.22,0.235-0.353c0.058-0.131,0.086-0.273,0.086-0.429V33.53h0.619v5.287
			C90.291,39.049,90.247,39.269,90.159,39.475z"/>
		<path fill="#FFFFFF" d="M94.494,38.807h-2.177l-0.451,1.604h-0.643l2.015-6.881h0.326l2.025,6.881h-0.638L94.494,38.807z
			 M92.485,38.217h1.847l-0.906-3.172l-0.02-0.254l-0.019,0.254L92.485,38.217z"/>
		<path fill="#FFFFFF" d="M100.953,40.411v-4.718l-0.043,0.293l-1.598,4.425h-0.326l-1.611-4.425l-0.039-0.293v4.718h-0.619V33.53
			h0.32l2.088,5.643l0.02,0.254l0.019-0.254l2.084-5.643h0.325v6.881H100.953z"/>
		<path fill="#FFFFFF" d="M109.439,40.411l-2.869-5.009l-0.059-0.299v5.308h-0.619V33.53h0.321l2.869,5.014l0.063,0.295V33.53h0.619
			v6.881H109.439z"/>
		<path fill="#FFFFFF" d="M114.166,38.807h-2.178l-0.451,1.604h-0.645l2.016-6.881h0.326l2.024,6.881h-0.639L114.166,38.807z
			 M112.154,38.217h1.848l-0.906-3.172l-0.02-0.254l-0.02,0.254L112.154,38.217z"/>
		<path fill="#FFFFFF" d="M120.129,36.735c-0.088,0.205-0.208,0.385-0.361,0.537c-0.154,0.152-0.334,0.273-0.541,0.361
			c-0.205,0.089-0.426,0.134-0.658,0.134h-1.56v2.644h-0.62V33.53h2.18c0.232,0,0.453,0.043,0.658,0.133
			c0.207,0.088,0.387,0.207,0.541,0.361c0.153,0.152,0.273,0.334,0.361,0.54c0.088,0.205,0.133,0.427,0.133,0.659v0.854
			C120.26,36.311,120.217,36.53,120.129,36.735z M119.643,35.223c0-0.153-0.029-0.297-0.088-0.43s-0.137-0.25-0.236-0.353
			c-0.102-0.103-0.219-0.181-0.352-0.235c-0.132-0.06-0.275-0.086-0.43-0.086h-1.529v3.057h1.529c0.154,0,0.298-0.029,0.43-0.088
			c0.133-0.057,0.25-0.135,0.352-0.234c0.101-0.1,0.179-0.215,0.236-0.348c0.059-0.133,0.088-0.275,0.088-0.43V35.223z"/>
		<path fill="#FFFFFF" d="M125.326,39.475c-0.088,0.205-0.209,0.384-0.362,0.535c-0.155,0.154-0.333,0.275-0.537,0.363
			c-0.206,0.088-0.424,0.131-0.657,0.131h-0.49c-0.232,0-0.452-0.043-0.659-0.131c-0.205-0.088-0.388-0.209-0.539-0.363
			c-0.154-0.151-0.274-0.331-0.362-0.535c-0.089-0.204-0.132-0.426-0.132-0.657V33.53h0.619v5.287c0,0.153,0.026,0.297,0.086,0.43
			c0.058,0.133,0.138,0.25,0.235,0.353c0.103,0.101,0.22,0.179,0.353,0.235c0.131,0.059,0.274,0.086,0.429,0.086h0.434
			c0.152,0,0.295-0.027,0.428-0.086s0.25-0.138,0.348-0.235c0.101-0.103,0.178-0.22,0.235-0.353s0.086-0.274,0.086-0.43V33.53h0.618
			v5.287C125.458,39.049,125.414,39.269,125.326,39.475z"/>
		<path fill="#FFFFFF" d="M130.436,40.411v-3.143h-2.635v3.143h-0.619V33.53h0.619v3.146h2.635V33.53h0.617v6.881H130.436z"/>
		<path fill="#FFFFFF" d="M135.453,38.807h-2.178l-0.451,1.604h-0.645l2.016-6.881h0.328l2.022,6.881h-0.639L135.453,38.807z
			 M133.443,38.217h1.846l-0.905-3.172l-0.019-0.254l-0.021,0.254L133.443,38.217z"/>
		<path fill="#FFFFFF" d="M141.223,40.411l-2.869-5.009l-0.059-0.299v5.308h-0.619V33.53h0.32l2.871,5.014l0.063,0.295V33.53h0.618
			v6.881H141.223z"/>
		<path fill="#FFFFFF" d="M145.949,38.807h-2.178l-0.451,1.604h-0.645l2.016-6.881h0.326l2.024,6.881h-0.64L145.949,38.807z
			 M143.939,38.217h1.846l-0.905-3.172l-0.021-0.254l-0.02,0.254L143.939,38.217z"/>
		<path fill="#FFFFFF" d="M151.811,39.475c-0.088,0.205-0.209,0.384-0.361,0.535c-0.153,0.154-0.332,0.275-0.537,0.363
			c-0.204,0.088-0.424,0.131-0.657,0.131h-0.487c-0.234,0-0.455-0.043-0.66-0.131c-0.207-0.088-0.387-0.209-0.541-0.363
			c-0.154-0.151-0.273-0.331-0.361-0.535s-0.133-0.426-0.133-0.657v-3.694c0-0.231,0.043-0.453,0.133-0.656
			c0.088-0.204,0.207-0.385,0.361-0.536c0.152-0.154,0.334-0.272,0.541-0.362c0.205-0.089,0.426-0.132,0.66-0.132h0.487
			c0.233,0,0.453,0.043,0.657,0.132c0.205,0.09,0.385,0.208,0.537,0.362c0.152,0.151,0.273,0.332,0.361,0.536
			c0.09,0.203,0.133,0.425,0.133,0.656v0.278l-0.619,0.095v-0.373c0-0.152-0.027-0.297-0.086-0.43
			c-0.059-0.132-0.137-0.249-0.234-0.348c-0.1-0.1-0.215-0.178-0.35-0.235c-0.131-0.058-0.273-0.087-0.428-0.087h-0.433
			c-0.153,0-0.296,0.029-0.429,0.087s-0.25,0.138-0.352,0.235c-0.101,0.099-0.181,0.216-0.236,0.348
			c-0.06,0.133-0.086,0.275-0.086,0.43v3.694c0,0.153,0.026,0.298,0.086,0.429c0.057,0.133,0.137,0.25,0.236,0.353
			c0.101,0.103,0.219,0.18,0.352,0.235c0.131,0.06,0.275,0.086,0.429,0.086h0.433c0.153,0,0.297-0.026,0.43-0.086
			c0.133-0.058,0.25-0.137,0.349-0.235c0.101-0.103,0.179-0.22,0.235-0.353c0.058-0.131,0.086-0.273,0.086-0.429v-0.375l0.619,0.101
			v0.273C151.941,39.049,151.898,39.269,151.811,39.475z"/>
		<path fill="#FFFFFF" d="M156.146,38.807h-2.179l-0.45,1.604h-0.643l2.016-6.881h0.325l2.024,6.881h-0.639L156.146,38.807z
			 M154.137,38.217h1.848l-0.906-3.172l-0.02-0.254l-0.021,0.254L154.137,38.217z"/>
	</g>
</g>
<g>
	<path fill="#FFFFFF" d="M7.061,46.383c-1.004,0-1.822-0.816-1.822-1.819v-0.405c0-0.473,0.192-0.939,0.527-1.281l0.171-0.176
		l-0.172-0.175c-0.334-0.341-0.526-0.807-0.526-1.278V40.84c0-0.473,0.192-0.938,0.526-1.276l0.172-0.176l-0.172-0.175
		c-0.334-0.342-0.526-0.809-0.526-1.28v-0.407c0-1.004,0.817-1.82,1.822-1.82h0.25l0.002-15.389H6.914
		c-0.202,0-0.366-0.165-0.366-0.368v-6.036h-0.25c-0.21,0-0.334-0.075-0.397-0.194c-0.065-0.121-0.059-0.264,0.017-0.375
		l3.997-5.999V2.314c0-0.202,0.165-0.366,0.367-0.366c0.062,0,0.109,0.008,0.154,0.025l3.791,1.48
		c0.142,0.056,0.234,0.19,0.234,0.341c0,0.153-0.092,0.288-0.234,0.343L10.65,5.534v1.812l3.996,5.995
		c0.076,0.113,0.083,0.257,0.018,0.377c-0.06,0.111-0.17,0.184-0.295,0.194l-0.229,0.019v6.019c0,0.203-0.165,0.368-0.368,0.368
		h-0.25l-0.058,0.25v1.748l0.4-0.301c1.372-1.031,2.924-1.859,4.613-2.46c2.053-0.729,4.226-1.099,6.458-1.099
		s4.405,0.37,6.458,1.099c1.688,0.601,3.239,1.429,4.612,2.46l0.4,0.301v-1.998h-0.4c-0.203,0-0.367-0.165-0.367-0.368v-6.036h-0.25
		c-0.208,0-0.33-0.073-0.397-0.196c-0.063-0.118-0.056-0.262,0.02-0.375l3.998-5.998V2.314c0-0.202,0.164-0.366,0.366-0.366
		c0.061,0,0.107,0.008,0.151,0.025l3.794,1.48c0.141,0.055,0.233,0.189,0.233,0.341c0,0.154-0.091,0.288-0.232,0.343L39.74,5.535
		v1.812l3.996,5.995c0.076,0.113,0.083,0.258,0.019,0.376c-0.06,0.112-0.171,0.185-0.297,0.195l-0.229,0.019v6.019
		c0,0.203-0.164,0.368-0.366,0.368h-0.25l-0.058,0.25v15.141h0.25c1.05,0,1.866,0.816,1.866,1.82v0.405
		c0,0.474-0.192,0.938-0.526,1.28l-0.172,0.175l0.172,0.176c0.334,0.339,0.526,0.806,0.526,1.274v0.408
		c0,0.477-0.181,0.924-0.508,1.262l-0.165,0.169l0.16,0.174c0.326,0.354,0.513,0.832,0.513,1.31v0.403
		c0,1.003-0.816,1.817-1.82,1.817H7.061L7.061,46.383z M34.39,45.651h8.458c0.6,0,1.088-0.486,1.088-1.087v-0.405
		c0-0.603-0.493-1.091-0.815-1.091H34.39V45.651z M32.656,34.513c-0.55,0-0.998,0.446-0.998,0.995v10.143h1.997V35.508
		C33.655,34.959,33.207,34.513,32.656,34.513z M18.942,45.651h11.984V36.44H18.942V45.651z M17.209,34.513
		c-0.55,0-0.998,0.446-0.998,0.995v10.143h1.996V35.508C18.207,34.959,17.759,34.513,17.209,34.513z M7.061,43.068
		c-0.6,0-1.088,0.489-1.088,1.091v0.405c0,0.601,0.488,1.087,1.088,1.087h8.416v-2.583H7.061z M34.389,42.334h8.459
		c0.6,0,1.088-0.487,1.088-1.086V40.84c0-0.6-0.488-1.088-1.088-1.088h-8.459V42.334z M7.061,39.752c-0.6,0-1.088,0.488-1.088,1.088
		v0.408c0,0.599,0.488,1.086,1.088,1.086h8.416v-2.582H7.061z M34.389,39.02h8.459c0.6,0,1.088-0.486,1.088-1.087v-0.405
		c0-0.6-0.488-1.088-1.088-1.088h-8.459V39.02z M7.061,36.44c-0.6,0-1.088,0.488-1.088,1.088v0.405c0,0.601,0.488,1.087,1.088,1.087
		h8.416v-2.58H7.061z M24.934,23.867c1.546,0,3.05,0.256,4.47,0.762c1.475,0.523,2.791,1.293,3.912,2.29
		c2.357,2.097,3.675,5.052,3.81,8.547l0.009,0.24h4.68l-0.007-0.258c-0.137-4.927-1.927-9.07-5.176-11.985
		c-0.088-0.057-0.127-0.09-0.154-0.128c-3.049-2.65-7.244-4.146-11.546-4.146c-4.303,0-8.498,1.496-11.506,4.104
		c-0.067,0.08-0.105,0.114-0.151,0.14c-3.292,2.946-5.083,7.09-5.22,12.017l-0.007,0.256h4.683l0.009-0.24
		c0.134-3.493,1.452-6.449,3.81-8.547c1.121-0.994,2.438-1.765,3.913-2.289C21.883,24.124,23.387,23.867,24.934,23.867z
		 M32.657,33.776c0.93,0,1.706,0.758,1.73,1.688l0.006,0.242h2.008l-0.011-0.261c-0.139-3.269-1.371-6.026-3.563-7.978
		c-2.08-1.848-4.884-2.866-7.895-2.866c-5.302,0-11.149,3.394-11.458,10.844l-0.011,0.261h2.006l0.006-0.242
		c0.024-0.93,0.801-1.688,1.731-1.688s1.707,0.758,1.732,1.688l0.007,0.242h11.973l0.006-0.242
		C30.95,34.534,31.727,33.776,32.657,33.776z M37.138,22.949l0.081,0.074c1.834,1.681,3.219,3.724,4.116,6.072l0.483-0.089v-8.689
		h-4.68V22.949z M8.048,29.006l0.483,0.089c0.897-2.349,2.282-4.392,4.117-6.072l0.081-0.075v-2.632H8.048V29.006z M36.371,19.583
		h6.121v-5.67h-6.121V19.583z M7.281,19.583h6.121v-5.67H7.281V19.583z M35.999,13.179h6.744l-3.373-5.06L35.999,13.179z
		 M6.91,13.179h6.742l-3.371-5.06L6.91,13.179z M39.757,4.74l2.417-0.946l-2.417-0.941V4.74z M10.667,4.74l2.417-0.946l-2.417-0.941
		V4.74z"/>
</g>
</svg>
