<?xml version="1.0" encoding="utf-8"?>
<!-- Generator: Adobe Illustrator 16.0.0, SVG Export Plug-In . SVG Version: 6.00 Build 0)  -->
<!DOCTYPE svg PUBLIC "-//W3C//DTD SVG 1.1//EN" "http://www.w3.org/Graphics/SVG/1.1/DTD/svg11.dtd">
<svg version="1.1" id="Layer_1" xmlns="http://www.w3.org/2000/svg" xmlns:xlink="http://www.w3.org/1999/xlink" x="0px" y="0px"
	 width="200px" height="48.333px" viewBox="0 0 200 48.333" enable-background="new 0 0 200 48.333" xml:space="preserve">
<g>
	<g>
		<path fill="#ECF2FA" d="M18.867,22.933c-0.314,0.729-0.744,1.367-1.291,1.914s-1.185,0.977-1.914,1.291
			c-0.729,0.313-1.51,0.47-2.341,0.47h-1.743c-0.832,0-1.615-0.157-2.35-0.47c-0.735-0.313-1.376-0.744-1.923-1.291
			s-0.977-1.185-1.29-1.914c-0.314-0.729-0.47-1.509-0.47-2.341V7.432c0-0.832,0.156-1.612,0.47-2.341
			c0.313-0.729,0.743-1.367,1.29-1.914S8.493,2.2,9.228,1.886c0.734-0.313,1.518-0.47,2.35-0.47h1.743
			c0.832,0,1.612,0.157,2.341,0.47c0.729,0.314,1.367,0.744,1.914,1.291s0.977,1.185,1.291,1.914c0.313,0.729,0.47,1.51,0.47,2.341
			v13.159C19.336,21.423,19.18,22.204,18.867,22.933z M17.132,7.432c0-0.547-0.103-1.057-0.308-1.529s-0.484-0.886-0.837-1.239
			c-0.354-0.353-0.767-0.632-1.239-0.837s-0.982-0.308-1.529-0.308H11.68c-0.547,0-1.057,0.103-1.529,0.308
			C9.678,4.031,9.262,4.311,8.903,4.664C8.544,5.017,8.262,5.43,8.057,5.903S7.75,6.885,7.75,7.432v13.159
			c0,0.547,0.103,1.057,0.308,1.529c0.205,0.473,0.487,0.889,0.846,1.248c0.359,0.358,0.775,0.641,1.248,0.846
			c0.472,0.205,0.982,0.308,1.529,0.308h1.538c0.547,0,1.057-0.103,1.529-0.308s0.886-0.487,1.239-0.846
			c0.353-0.359,0.632-0.775,0.837-1.248c0.205-0.472,0.308-0.982,0.308-1.529V7.432z"/>
		<path fill="#ECF2FA" d="M38.796,22.591c-0.313,0.729-0.743,1.367-1.29,1.914s-1.188,0.977-1.923,1.291
			c-0.734,0.313-1.518,0.47-2.35,0.47h-7.759V1.758h7.759c0.832,0,1.615,0.157,2.35,0.47c0.735,0.314,1.376,0.744,1.923,1.291
			s0.977,1.188,1.29,1.922c0.313,0.735,0.47,1.519,0.47,2.35V8.03c0,0.581-0.077,1.136-0.231,1.667
			c-0.153,0.529-0.373,1.022-0.658,1.478c-0.285,0.456-0.621,0.869-1.008,1.239c-0.388,0.371-0.82,0.681-1.299,0.932
			c0.479,0.251,0.911,0.562,1.299,0.932c0.387,0.37,0.723,0.786,1.008,1.247c0.285,0.462,0.504,0.957,0.658,1.487
			c0.154,0.529,0.231,1.085,0.231,1.666v1.572C39.267,21.082,39.11,21.862,38.796,22.591z M37.062,7.791
			c0-0.547-0.103-1.057-0.308-1.53c-0.205-0.472-0.487-0.889-0.846-1.247c-0.359-0.359-0.775-0.641-1.248-0.846
			S33.678,3.86,33.131,3.86H27.68v8.442h5.452c0.547,0,1.057-0.103,1.529-0.308s0.889-0.487,1.248-0.846
			c0.358-0.358,0.641-0.774,0.846-1.247s0.308-0.983,0.308-1.53V7.791z M37.062,18.318c0-0.547-0.103-1.057-0.308-1.53
			c-0.205-0.472-0.487-0.885-0.846-1.239c-0.359-0.353-0.775-0.632-1.248-0.837s-0.982-0.308-1.529-0.308H27.68v9.758h5.452
			c0.547,0,1.057-0.103,1.529-0.308s0.889-0.484,1.248-0.837c0.358-0.353,0.641-0.766,0.846-1.239
			c0.205-0.472,0.308-0.982,0.308-1.529V18.318z"/>
		<path fill="#ECF2FA" d="M55.864,26.265l-6.648-10.459h-3.025v10.459h-2.205V1.758h7.776c0.832,0,1.612,0.157,2.341,0.47
			c0.729,0.314,1.367,0.744,1.914,1.291s0.977,1.188,1.291,1.922c0.313,0.735,0.47,1.519,0.47,2.35v1.982
			c0,0.832-0.157,1.615-0.47,2.35c-0.314,0.734-0.744,1.375-1.291,1.922s-1.185,0.977-1.914,1.291
			c-0.729,0.313-1.51,0.47-2.341,0.47l6.648,10.459H55.864z M55.574,7.791c0-0.547-0.103-1.057-0.308-1.53
			c-0.205-0.472-0.484-0.889-0.837-1.247c-0.354-0.359-0.767-0.641-1.239-0.846S52.207,3.86,51.66,3.86h-5.469v9.844h5.469
			c0.547,0,1.057-0.103,1.529-0.308s0.886-0.487,1.239-0.846c0.353-0.358,0.632-0.774,0.837-1.247s0.308-0.983,0.308-1.53V7.791z"/>
		<path fill="#ECF2FA" d="M69.437,3.86v22.405h-2.205V3.86h-5.845V1.758h13.894V3.86H69.437z"/>
		<path fill="#ECF2FA" d="M101.906,22.591c-0.314,0.729-0.744,1.367-1.291,1.914c-0.547,0.547-1.188,0.977-1.923,1.291
			c-0.734,0.313-1.518,0.47-2.35,0.47h-7.759V1.758h7.759c0.832,0,1.615,0.157,2.35,0.47c0.735,0.314,1.376,0.744,1.923,1.291
			c0.546,0.547,0.976,1.188,1.291,1.922c0.313,0.735,0.47,1.519,0.47,2.35V20.25C102.376,21.082,102.219,21.862,101.906,22.591z
			 M100.171,7.791c0-0.547-0.103-1.057-0.308-1.53c-0.205-0.472-0.487-0.889-0.846-1.247c-0.359-0.359-0.775-0.641-1.248-0.846
			S96.788,3.86,96.241,3.86h-5.452v20.303h5.452c0.547,0,1.057-0.103,1.529-0.308s0.889-0.484,1.248-0.837
			c0.358-0.353,0.641-0.766,0.846-1.239c0.205-0.472,0.308-0.982,0.308-1.529V7.791z"/>
		<path fill="#ECF2FA" d="M108.498,26.265V1.758h13.791V3.86h-11.587v9.109h9.382v2.102h-9.382v9.092h11.587v2.102H108.498z"/>
		<path fill="#ECF2FA" d="M127.368,26.265V1.758h2.204v24.507H127.368z M139.331,26.265l-9.229-12.253l9.229-12.253h2.734
			l-9.417,12.253l9.417,12.253H139.331z"/>
		<path fill="#ECF2FA" d="M155.639,20.557h-7.76l-1.605,5.708h-2.291l7.178-24.507h1.162l7.213,24.507h-2.273L155.639,20.557z
			 M148.478,18.455h6.579l-3.229-11.296l-0.068-0.906l-0.068,0.906L148.478,18.455z"/>
		<path fill="#ECF2FA" d="M176.875,22.591c-0.313,0.729-0.742,1.367-1.289,1.914s-1.188,0.977-1.924,1.291
			c-0.734,0.313-1.518,0.47-2.35,0.47h-7.758V1.758h7.758c0.832,0,1.615,0.157,2.35,0.47c0.736,0.314,1.377,0.744,1.924,1.291
			s0.977,1.188,1.289,1.922c0.314,0.735,0.471,1.519,0.471,2.35V20.25C177.346,21.082,177.189,21.862,176.875,22.591z
			 M175.141,7.791c0-0.547-0.102-1.057-0.307-1.53c-0.205-0.472-0.488-0.889-0.846-1.247c-0.359-0.359-0.775-0.641-1.248-0.846
			s-0.982-0.308-1.529-0.308h-5.452v20.303h5.452c0.547,0,1.057-0.103,1.529-0.308s0.889-0.484,1.248-0.837
			c0.357-0.353,0.641-0.766,0.846-1.239c0.205-0.472,0.307-0.982,0.307-1.529V7.791z"/>
		<path fill="#ECF2FA" d="M192.662,20.557h-7.76l-1.605,5.708h-2.291l7.178-24.507h1.162l7.213,24.507h-2.273L192.662,20.557z
			 M185.501,18.455h6.579l-3.229-11.296l-0.068-0.906l-0.068,0.906L185.501,18.455z"/>
	</g>
	<g>
		<path fill="#ECF2FA" d="M44.475,46.693l-4.38-7.646l-0.088-0.454v8.101h-0.945V36.19h0.491l4.38,7.654l0.095,0.447V36.19h0.945
			v10.503H44.475z"/>
		<path fill="#ECF2FA" d="M51.691,44.247h-3.325l-0.688,2.446h-0.981l3.076-10.503h0.498l3.091,10.503h-0.974L51.691,44.247z
			 M48.622,43.346h2.82l-1.384-4.841l-0.029-0.388l-0.029,0.388L48.622,43.346z"/>
		<path fill="#ECF2FA" d="M59.591,45.265c-0.134,0.313-0.318,0.586-0.553,0.82s-0.508,0.419-0.82,0.553
			c-0.313,0.134-0.647,0.201-1.003,0.201h-0.3c-0.356,0-0.692-0.067-1.007-0.201c-0.315-0.134-0.59-0.319-0.824-0.553
			s-0.419-0.508-0.553-0.82c-0.135-0.313-0.202-0.647-0.202-1.003v-0.417l0.945-0.154v0.571c0,0.234,0.044,0.453,0.132,0.655
			c0.088,0.203,0.209,0.381,0.362,0.535c0.154,0.153,0.332,0.274,0.535,0.362c0.202,0.088,0.421,0.132,0.655,0.132h0.212
			c0.229,0,0.447-0.044,0.652-0.132s0.383-0.209,0.535-0.362c0.151-0.154,0.271-0.332,0.359-0.535
			c0.088-0.202,0.132-0.421,0.132-0.655V36.19h0.945v8.071C59.793,44.618,59.726,44.952,59.591,45.265z"/>
		<path fill="#ECF2FA" d="M66.21,44.247h-3.325l-0.688,2.446h-0.981l3.076-10.503h0.498l3.091,10.503h-0.974L66.21,44.247z
			 M63.142,43.346h2.82l-1.384-4.841l-0.029-0.388l-0.029,0.388L63.142,43.346z"/>
		<path fill="#ECF2FA" d="M76.07,46.693v-7.2l-0.066,0.447l-2.439,6.753h-0.498l-2.461-6.753l-0.059-0.447v7.2h-0.945V36.19h0.491
			l3.186,8.613l0.029,0.388l0.029-0.388l3.179-8.613h0.498v10.503H76.07z"/>
		<path fill="#ECF2FA" d="M89.022,46.693l-4.38-7.646l-0.088-0.454v8.101H83.61V36.19h0.491l4.38,7.654l0.095,0.447V36.19h0.945
			v10.503H89.022z"/>
		<path fill="#ECF2FA" d="M96.238,44.247h-3.325l-0.688,2.446h-0.981l3.076-10.503h0.498l3.091,10.503h-0.974L96.238,44.247z
			 M93.169,43.346h2.82l-1.384-4.841l-0.029-0.388l-0.029,0.388L93.169,43.346z"/>
		<path fill="#ECF2FA" d="M105.34,41.083c-0.135,0.313-0.318,0.586-0.553,0.82s-0.509,0.419-0.824,0.553
			c-0.314,0.135-0.65,0.202-1.007,0.202h-2.38v4.036h-0.945V36.19h3.325c0.356,0,0.692,0.067,1.007,0.201
			c0.315,0.135,0.59,0.319,0.824,0.553s0.418,0.509,0.553,0.824c0.135,0.315,0.201,0.651,0.201,1.007v1.304
			C105.541,40.436,105.475,40.77,105.34,41.083z M104.597,38.775c0-0.234-0.044-0.453-0.132-0.656
			c-0.088-0.202-0.209-0.381-0.362-0.534c-0.154-0.154-0.333-0.275-0.535-0.363s-0.421-0.132-0.655-0.132h-2.336v4.666h2.336
			c0.234,0,0.453-0.044,0.655-0.132s0.381-0.208,0.535-0.359c0.153-0.151,0.274-0.328,0.362-0.531s0.132-0.421,0.132-0.656V38.775z"
			/>
		<path fill="#ECF2FA" d="M113.273,45.265c-0.135,0.313-0.318,0.586-0.553,0.82s-0.508,0.419-0.82,0.553
			c-0.313,0.134-0.646,0.201-1.004,0.201h-0.746c-0.357,0-0.693-0.067-1.008-0.201c-0.314-0.134-0.59-0.319-0.824-0.553
			s-0.418-0.508-0.553-0.82s-0.201-0.647-0.201-1.003V36.19h0.945v8.071c0,0.234,0.043,0.453,0.131,0.655
			c0.088,0.203,0.209,0.381,0.363,0.535c0.154,0.153,0.332,0.274,0.535,0.362c0.201,0.088,0.42,0.132,0.654,0.132h0.66
			c0.234,0,0.452-0.044,0.654-0.132c0.203-0.088,0.381-0.209,0.531-0.362c0.152-0.154,0.271-0.332,0.359-0.535
			c0.088-0.202,0.132-0.421,0.132-0.655V36.19h0.944v8.071C113.475,44.618,113.408,44.952,113.273,45.265z"/>
		<path fill="#ECF2FA" d="M121.072,46.693v-4.797h-4.021v4.797h-0.945V36.19h0.945v4.805h4.021V36.19h0.944v10.503H121.072z"/>
		<path fill="#ECF2FA" d="M128.734,44.247h-3.325l-0.688,2.446h-0.981l3.076-10.503h0.498l3.091,10.503h-0.975L128.734,44.247z
			 M125.666,43.346h2.819l-1.384-4.841l-0.029-0.388l-0.029,0.388L125.666,43.346z"/>
		<path fill="#ECF2FA" d="M137.539,46.693l-4.379-7.646l-0.088-0.454v8.101h-0.945V36.19h0.49l4.381,7.654l0.095,0.447V36.19h0.944
			v10.503H137.539z"/>
		<path fill="#ECF2FA" d="M144.756,44.247h-3.326l-0.688,2.446h-0.982l3.076-10.503h0.498l3.092,10.503h-0.975L144.756,44.247z
			 M141.687,43.346h2.819l-1.384-4.841l-0.029-0.388l-0.029,0.388L141.687,43.346z"/>
		<path fill="#ECF2FA" d="M153.703,45.265c-0.135,0.313-0.318,0.586-0.553,0.82s-0.508,0.419-0.82,0.553
			c-0.313,0.134-0.646,0.201-1.004,0.201h-0.746c-0.357,0-0.693-0.067-1.008-0.201c-0.314-0.134-0.59-0.319-0.824-0.553
			s-0.418-0.508-0.553-0.82s-0.201-0.647-0.201-1.003v-5.64c0-0.356,0.066-0.691,0.201-1.003s0.318-0.586,0.553-0.82
			s0.51-0.418,0.824-0.553c0.314-0.134,0.65-0.201,1.008-0.201h0.746c0.357,0,0.691,0.067,1.004,0.201
			c0.313,0.135,0.586,0.319,0.82,0.553s0.418,0.508,0.553,0.82s0.201,0.647,0.201,1.003v0.425l-0.944,0.146v-0.571
			c0-0.234-0.044-0.453-0.132-0.655s-0.207-0.38-0.359-0.531c-0.15-0.151-0.328-0.271-0.531-0.359
			c-0.202-0.088-0.42-0.132-0.654-0.132h-0.66c-0.234,0-0.453,0.044-0.654,0.132c-0.203,0.088-0.381,0.208-0.535,0.359
			s-0.275,0.329-0.363,0.531s-0.131,0.421-0.131,0.655v5.64c0,0.234,0.043,0.453,0.131,0.655c0.088,0.203,0.209,0.381,0.363,0.535
			c0.154,0.153,0.332,0.274,0.535,0.362c0.201,0.088,0.42,0.132,0.654,0.132h0.66c0.234,0,0.452-0.044,0.654-0.132
			c0.203-0.088,0.381-0.209,0.531-0.362c0.152-0.154,0.271-0.332,0.359-0.535c0.088-0.202,0.132-0.421,0.132-0.655V43.69
			l0.944,0.154v0.417C153.904,44.618,153.838,44.952,153.703,45.265z"/>
		<path fill="#ECF2FA" d="M160.322,44.247h-3.325l-0.688,2.446h-0.981l3.076-10.503h0.498l3.091,10.503h-0.975L160.322,44.247z
			 M157.254,43.346h2.819l-1.384-4.841l-0.029-0.388l-0.029,0.388L157.254,43.346z"/>
	</g>
</g>
</svg>
