<?xml version="1.0" encoding="utf-8"?>
<!-- Generator: Adobe Illustrator 16.0.0, SVG Export Plug-In . SVG Version: 6.00 Build 0)  -->
<!DOCTYPE svg PUBLIC "-//W3C//DTD SVG 1.1//EN" "http://www.w3.org/Graphics/SVG/1.1/DTD/svg11.dtd">
<svg version="1.1" id="Layer_1" xmlns="http://www.w3.org/2000/svg" xmlns:xlink="http://www.w3.org/1999/xlink" x="0px" y="0px"
	 width="200px" height="200px" viewBox="0 0 200 200" enable-background="new 0 0 200 200" xml:space="preserve">
<g>
	<path fill="#0B678F" d="M87.146,126.567c-0.669,0-1.304-0.218-1.835-0.627l-23.803-18.434c-1.308-1.009-1.548-2.901-0.535-4.204
		c0.572-0.737,1.436-1.164,2.374-1.164c0.668,0,1.304,0.217,1.835,0.628l21.621,16.743l42.244-46.097
		c0.568-0.618,1.373-0.973,2.21-0.973c0.752,0,1.475,0.282,2.027,0.79c1.219,1.117,1.301,3.019,0.185,4.238L89.36,125.595
		C88.793,126.213,87.988,126.567,87.146,126.567z"/>
	<path fill="#0B678F" d="M100.314,168.729c-37.828,0-68.603-30.773-68.603-68.602c0-37.829,30.776-68.606,68.603-68.606
		s68.604,30.777,68.604,68.606C168.918,137.955,138.142,168.729,100.314,168.729z M100.314,37.519
		c-34.52,0-62.605,28.086-62.605,62.607c0,34.523,28.085,62.603,62.605,62.603c34.52,0,62.604-28.082,62.604-62.603
		C162.921,65.605,134.834,37.519,100.314,37.519z"/>
	<path fill="#0B678F" d="M100.314,200c-6.266,0-11.315-4.124-12.564-10.262l-0.143-0.7c-0.768-3.78-3.941-5.475-6.743-5.475
		c-1.29,0-3.719,0.374-5.498,2.868l-0.417,0.583c-2.458,3.443-6.204,5.422-10.28,5.422c-3.971,0-7.819-1.841-10.292-4.923
		c-2.406-2.999-3.254-6.807-2.384-10.719l0.154-0.705c0.458-2.065-0.001-4.091-1.292-5.7c-1.305-1.624-3.322-2.593-5.396-2.593
		c-1.206,0-2.395,0.325-3.438,0.941l-0.618,0.363c-2.083,1.227-4.292,1.846-6.566,1.846c-4.751,0-9.255-2.837-11.474-7.237
		c-2.182-4.332-1.724-9.295,1.226-13.282l0.425-0.573c2.257-3.052,1.184-5.996,0.619-7.115c-1.192-2.364-3.452-3.774-6.049-3.774
		c-0.27,0-0.546,0.018-0.825,0.047l-0.712,0.082c-0.546,0.064-1.081,0.09-1.601,0.09c-5.822,0-10.749-3.859-12.261-9.602
		c-1.525-5.783,0.869-11.432,6.094-14.388l0.625-0.356c2.437-1.377,3.716-3.866,3.423-6.647c-0.293-2.79-2.063-4.954-4.735-5.797
		l-0.682-0.216c-5.976-1.881-9.55-7.336-8.897-13.565c0.656-6.232,5.287-10.825,11.522-11.426l0.714-0.066
		c2.788-0.271,4.969-2.019,5.834-4.683c0.867-2.667,0.131-5.366-1.968-7.22l-0.533-0.474c-4.095-3.624-5.452-9.008-3.539-14.057
		c1.937-5.112,6.59-8.416,11.852-8.416c1.413,0,2.842,0.239,4.249,0.71l0.683,0.227c0.716,0.237,1.455,0.362,2.196,0.362
		c2.311,0,4.454-1.19,5.733-3.178c0.743-1.156,1.788-3.534,0.442-6.487l-0.297-0.652c-1.856-4.07-1.575-8.493,0.767-12.137
		c2.41-3.745,6.618-6.072,10.984-6.072c3.155,0,6.121,1.191,8.578,3.44l0.527,0.483c1.636,1.496,3.377,1.813,4.549,1.813
		c1.849,0,3.66-0.757,4.967-2.073c0.886-0.895,1.939-2.46,1.918-4.83l-0.006-0.715c-0.031-3.506,1.245-6.74,3.59-9.106
		c2.419-2.441,5.829-3.84,9.352-3.84c5.107,0,9.566,2.957,11.638,7.721l0.287,0.66c1.116,2.565,3.455,4.101,6.255,4.101
		c2.801,0,5.139-1.535,6.257-4.104l0.284-0.652c2.071-4.764,6.533-7.725,11.638-7.725c3.527,0,6.938,1.399,9.353,3.84
		c2.348,2.367,3.621,5.6,3.589,9.106l-0.004,0.715c-0.02,2.37,1.032,3.936,1.918,4.83c1.308,1.317,3.117,2.073,4.969,2.073
		c1.172,0,2.913-0.312,4.545-1.813l0.532-0.483c2.453-2.25,5.419-3.44,8.574-3.44c4.367,0,8.579,2.328,10.986,6.072
		c2.342,3.64,2.624,8.063,0.766,12.137l-0.298,0.656c-1.344,2.949-0.3,5.327,0.446,6.483c1.279,1.987,3.422,3.175,5.733,3.175
		c0.739,0,1.479-0.122,2.196-0.359l0.679-0.227c1.407-0.472,2.837-0.71,4.249-0.71c5.265,0,9.916,3.304,11.852,8.416
		c1.914,5.045,0.558,10.435-3.537,14.054l-0.534,0.478c-2.098,1.855-2.836,4.553-1.97,7.22c0.867,2.664,3.05,4.413,5.837,4.683
		l0.71,0.066c6.239,0.601,10.87,5.193,11.523,11.426c0.654,6.229-2.919,11.685-8.896,13.566l-0.686,0.216
		c-2.67,0.843-4.439,3.007-4.731,5.795c-0.292,2.783,0.987,5.272,3.429,6.649l0.621,0.356c5.225,2.956,7.618,8.603,6.094,14.386
		c-1.51,5.744-6.438,9.604-12.259,9.604c-0.538,0-1.064-0.033-1.603-0.092l-0.707-0.082c-0.281-0.029-0.559-0.047-0.829-0.047
		c-2.597,0-4.856,1.41-6.046,3.774c-0.568,1.121-1.642,4.062,0.615,7.111l0.427,0.577c2.951,3.987,3.409,8.95,1.226,13.282
		c-2.218,4.396-6.722,7.237-11.472,7.237c-2.278,0-4.483-0.619-6.568-1.846l-0.619-0.363c-1.041-0.616-2.229-0.941-3.436-0.941
		c-2.075,0-4.093,0.969-5.396,2.593c-1.29,1.609-1.752,3.635-1.292,5.704l0.154,0.701c0.868,3.912,0.021,7.72-2.382,10.715
		c-2.477,3.086-6.322,4.927-10.296,4.927c-4.073,0-7.822-1.979-10.278-5.422l-0.413-0.583c-1.782-2.494-4.214-2.868-5.502-2.868
		c-2.801,0-5.972,1.688-6.74,5.471l-0.146,0.706C111.629,195.876,106.579,200,100.314,200z M80.864,177.565
		c6.201,0,11.391,4.224,12.622,10.273l0.142,0.696c0.82,4.036,4.115,5.469,6.687,5.469c2.571,0,5.867-1.431,6.686-5.465l0.146-0.704
		c1.229-6.05,6.419-10.27,12.617-10.27c4.159,0,7.945,1.964,10.383,5.384l0.416,0.581c1.716,2.403,3.882,2.905,5.396,2.905
		c2.138,0,4.288-1.024,5.615-2.676c0.877-1.098,1.802-2.968,1.208-5.668l-0.156-0.698c-0.848-3.823,0.052-7.744,2.472-10.759
		c2.445-3.046,6.205-4.865,10.052-4.865c2.251,0,4.501,0.62,6.501,1.8l0.618,0.363c1.08,0.64,2.283,0.975,3.487,0.975
		c2.581,0,4.935-1.497,6.151-3.901c0.547-1.086,1.579-3.944-0.693-7.014l-0.425-0.575c-2.897-3.915-3.338-9.045-1.149-13.382
		c2.23-4.426,6.486-7.068,11.383-7.068c0.504,0,1.014,0.029,1.528,0.086l0.707,0.078c0.309,0.037,0.61,0.057,0.902,0.057
		c3.546,0,5.812-2.58,6.479-5.132c0.644-2.441,0.128-5.73-3.245-7.638l-0.624-0.358c-4.511-2.549-6.979-7.341-6.438-12.499
		c0.54-5.155,3.949-9.331,8.895-10.888l0.688-0.214c3.922-1.238,4.999-4.663,4.731-7.221c-0.27-2.557-2.034-5.686-6.132-6.081
		l-0.711-0.065c-5.163-0.5-9.364-3.87-10.969-8.802c-1.6-4.932-0.186-10.13,3.697-13.567l0.536-0.472
		c3.279-2.901,2.287-6.428,1.906-7.439c-0.799-2.096-2.909-4.542-6.245-4.542c-0.762,0-1.552,0.132-2.348,0.398l-0.678,0.23
		c-1.306,0.434-2.666,0.656-4.041,0.656c-4.403,0-8.455-2.21-10.838-5.917c-2.355-3.663-2.676-8.228-0.856-12.219l0.296-0.657
		c1.294-2.827,0.521-5.041-0.354-6.4c-1.294-2.015-3.625-3.318-5.941-3.318c-1.651,0-3.176,0.628-4.524,1.866l-0.528,0.484
		c-2.388,2.183-5.438,3.386-8.599,3.386c-3.439,0-6.805-1.401-9.229-3.851c-2.387-2.41-3.687-5.643-3.654-9.103l0.004-0.715
		c0.018-1.953-0.606-3.577-1.852-4.834c-1.28-1.292-3.184-2.062-5.094-2.062c-1.305,0-4.519,0.399-6.137,4.111l-0.281,0.657
		c-2.07,4.756-6.578,7.713-11.761,7.713c-5.185,0-9.69-2.958-11.758-7.708l-0.287-0.661c-1.615-3.712-4.829-4.111-6.135-4.111
		c-1.907,0-3.812,0.769-5.092,2.062c-1.246,1.259-1.868,2.882-1.852,4.834l0.006,0.715c0.029,3.459-1.269,6.694-3.656,9.103
		c-2.427,2.449-5.79,3.851-9.228,3.851c-3.162,0-6.216-1.203-8.599-3.39l-0.526-0.479c-1.352-1.238-2.875-1.866-4.527-1.866
		c-2.312,0-4.643,1.304-5.94,3.318c-0.875,1.359-1.645,3.574-0.354,6.404l0.297,0.652c1.819,3.991,1.5,8.56-0.854,12.215
		c-2.394,3.726-6.41,5.949-10.745,5.949c-1.387,0-2.778-0.23-4.137-0.687l-0.681-0.226c-0.791-0.267-1.581-0.399-2.345-0.399
		c-3.336,0-5.449,2.445-6.243,4.542c-0.383,1.012-1.377,4.538,1.903,7.439l0.534,0.472c3.885,3.437,5.303,8.635,3.7,13.567
		c-1.601,4.932-5.803,8.301-10.964,8.803l-0.713,0.065c-4.097,0.398-5.863,3.523-6.132,6.081c-0.269,2.559,0.811,5.983,4.734,7.222
		l0.682,0.214c4.945,1.558,8.355,5.732,8.898,10.888c0.541,5.158-1.925,9.946-6.438,12.499l-0.625,0.358
		c-3.376,1.907-3.89,5.196-3.246,7.638c0.67,2.554,2.938,5.132,6.489,5.132c0.288,0,0.585-0.018,0.895-0.057l0.707-0.078
		c0.517-0.057,1.031-0.09,1.538-0.09c4.888,0,9.14,2.645,11.373,7.072c2.186,4.337,1.745,9.469-1.152,13.382l-0.423,0.575
		c-2.189,2.956-1.373,5.668-0.693,7.018c1.211,2.4,3.567,3.894,6.147,3.894c1.204,0,2.411-0.337,3.49-0.969l0.619-0.367
		c2-1.178,4.247-1.8,6.499-1.8c3.849,0,7.608,1.819,10.055,4.865c2.418,3.015,3.319,6.936,2.472,10.761l-0.156,0.702
		c-0.598,2.69,0.325,4.566,1.206,5.662c1.326,1.651,3.477,2.678,5.612,2.678c1.518,0,3.688-0.502,5.399-2.905l0.417-0.581
		C72.922,179.529,76.707,177.565,80.864,177.565z"/>
</g>
</svg>
