<?xml version="1.0" encoding="utf-8"?>
<!-- Generator: Adobe Illustrator 16.0.0, SVG Export Plug-In . SVG Version: 6.00 Build 0)  -->
<!DOCTYPE svg PUBLIC "-//W3C//DTD SVG 1.1//EN" "http://www.w3.org/Graphics/SVG/1.1/DTD/svg11.dtd">
<svg version="1.1" id="Layer_1" xmlns="http://www.w3.org/2000/svg" xmlns:xlink="http://www.w3.org/1999/xlink" x="0px" y="0px"
	 width="1927.991px" height="954.507px" viewBox="0 8.5 1927.991 954.507" enable-background="new 0 8.5 1927.991 954.507"
	 xml:space="preserve">
<g>
	<g>
		<path d="M1478.604,642.004c-88.498,0-160.5,71.999-160.5,160.501c0,88.499,71.998,160.502,160.5,160.502
			c88.498,0,160.502-71.998,160.502-160.502C1639.105,714.003,1567.107,642.004,1478.604,642.004z M1478.604,898.801
			c-53.093,0-96.3-43.205-96.3-96.3c0-53.092,43.207-96.301,96.3-96.301c53.092,0,96.301,43.209,96.301,96.301
			C1574.904,855.596,1531.695,898.801,1478.604,898.801z"/>
	</g>
</g>
<g>
	<g>
		<path d="M451.403,642.004c-88.499,0-160.502,71.999-160.502,160.501c0,88.499,71.999,160.498,160.502,160.498
			c88.501,0,160.5-71.999,160.5-160.502C611.9,714.003,539.901,642.004,451.403,642.004z M451.403,898.801
			c-53.093,0-96.3-43.205-96.3-96.3c0-53.092,43.208-96.301,96.3-96.301s96.3,43.209,96.3,96.301
			C547.704,855.596,504.496,898.801,451.403,898.801z"/>
	</g>
</g>
<g>
	<g>
		<path d="M1918.603,619.309l-22.694-22.695v-18.809v-32.097v-64.206v-32.099V32.098c0-17.718-14.347-32.098-32.1-32.098H419.303
			c-10.465,0-20.286,5.104-26.291,13.708L170.814,331.116c-37.138,30.814-72.417,67.313-98.064,118.287l-24.237,64.2
			c-6.578,24.591-11.522,51.492-13.673,82.239l-23.436,23.466C5.37,625.313,2,633.498,2,642.004v64.2
			c0,8.507,3.37,16.691,9.404,22.696l22.694,22.694v50.91c0,17.718,14.347,32.1,32.1,32.1h128.402
			c17.751,0,32.099-14.382,32.099-32.1c0-123.907,100.827-224.7,224.701-224.7c123.872,0,224.699,100.796,224.699,224.7
			c0,17.718,14.347,32.1,32.098,32.1h513.602c17.75,0,32.099-14.382,32.099-32.1c0-123.907,100.825-224.7,224.698-224.7
			c123.875,0,224.7,100.796,224.7,224.7c0,17.718,14.348,32.1,32.099,32.1h128.4c17.751,0,32.098-14.382,32.098-32.1v-50.91
			l22.694-22.694c6.035-6.005,9.404-14.189,9.404-22.696v-64.2C1928.007,633.495,1924.638,625.311,1918.603,619.309z M708.2,288.901
			c0,17.718-14.347,32.098-32.098,32.098H323c-11.846,0-22.727-6.515-28.311-16.95c-5.586-10.431-4.942-23.113,1.606-32.933
			l128.4-192.601c5.97-8.957,15.987-14.317,26.708-14.317h224.699c17.751,0,32.098,14.38,32.098,32.099V288.901z"/>
	</g>
</g>
</svg>
