<?xml version="1.0" encoding="utf-8"?>
<!-- Generator: Adobe Illustrator 16.0.0, SVG Export Plug-In . SVG Version: 6.00 Build 0)  -->
<!DOCTYPE svg PUBLIC "-//W3C//DTD SVG 1.1//EN" "http://www.w3.org/Graphics/SVG/1.1/DTD/svg11.dtd">
<svg version="1.1" id="Layer_1" xmlns="http://www.w3.org/2000/svg" xmlns:xlink="http://www.w3.org/1999/xlink" x="0px" y="0px"
	 width="200px" height="200px" viewBox="0 0 200 200" enable-background="new 0 0 200 200" xml:space="preserve">
<path fill="#0B678F" d="M20.214,200.374c-5.093,0-9.237-4.145-9.237-9.238v-1.812c0-2.429,0.975-4.767,2.665-6.484
	c-1.69-1.718-2.665-4.062-2.665-6.487v-1.811c0-2.427,0.975-4.765,2.665-6.482c-1.69-1.722-2.665-4.061-2.665-6.487v-1.811
	c0-5.092,4.144-9.236,9.237-9.236h0.013V84.134h-0.666c-1.517,0-2.75-1.235-2.75-2.754V55.576H16.48
	c-1.019,0-1.946-0.557-2.423-1.457c-0.48-0.892-0.428-1.973,0.137-2.82l17.631-26.457V2.75c0-1.514,1.231-2.75,2.75-2.75
	c0.433,0.004,0.768,0.066,1.085,0.19l16.912,6.597c1.063,0.419,1.752,1.425,1.752,2.564c0,1.143-0.689,2.15-1.752,2.564
	L37.328,17.87v6.973L54.959,51.3c0.565,0.847,0.613,1.928,0.133,2.824c-0.446,0.834-1.28,1.373-2.21,1.448v25.808
	c0,1.519-1.237,2.754-2.754,2.754h-0.256v5.561c6.214-4.669,13.222-8.411,20.866-11.13c9.267-3.296,19.083-4.964,29.171-4.964
	s19.897,1.669,29.166,4.964c7.645,2.719,14.652,6.461,20.865,11.13v-5.561h-0.669c-1.518,0-2.75-1.235-2.75-2.754V55.576h-0.324
	c-1.017,0-1.942-0.557-2.43-1.447c-0.481-0.901-0.427-1.986,0.141-2.834l17.633-26.453V2.75c0-1.514,1.231-2.75,2.748-2.75
	c0.429,0.004,0.76,0.066,1.077,0.186l16.92,6.602c1.065,0.419,1.747,1.425,1.747,2.564c0,1.143-0.682,2.15-1.747,2.564
	l-15.247,5.954v6.973L184.669,51.3c0.563,0.847,0.616,1.928,0.135,2.824c-0.448,0.834-1.282,1.377-2.214,1.448v25.808
	c0,1.519-1.232,2.754-2.75,2.754h-0.257v66.392h0.208c5.094,0,9.231,4.145,9.231,9.238v1.809c0,2.429-0.973,4.766-2.665,6.487
	c1.692,1.718,2.665,4.056,2.665,6.484v1.809c0,2.418-0.925,4.691-2.58,6.402c1.633,1.774,2.58,4.15,2.58,6.569v1.812
	c0,5.094-4.138,9.238-9.231,9.238H20.214L20.214,200.374z M179.791,194.872c2.057,0,3.734-1.677,3.734-3.733v-1.814
	c0-2.118-1.79-3.734-2.521-3.734h-37.819v9.282H179.791L179.791,194.872z M137.686,194.872v-44.107c0-1.835-1.497-3.332-3.338-3.332
	c-1.839,0-3.337,1.497-3.337,3.332v44.107H137.686z M125.514,194.872v-38.843H74.303v38.843H125.514z M68.799,194.872v-44.107
	c0-1.835-1.496-3.332-3.336-3.332c-1.835,0-3.333,1.497-3.333,3.332v44.107H68.799z M20.214,185.59
	c-2.061,0-3.738,1.677-3.738,3.734v1.812c0,2.058,1.677,3.734,3.738,3.734h36.414v-9.282H20.214V185.59z M179.791,180.086
	c2.057,0,3.734-1.673,3.734-3.733v-1.809c0-2.058-1.678-3.734-3.734-3.734h-36.606v9.278h36.606V180.086z M20.214,170.81
	c-2.061,0-3.738,1.677-3.738,3.734v1.809c0,2.061,1.677,3.733,3.738,3.733h36.414v-9.278H20.214V170.81z M179.791,165.306
	c2.057,0,3.734-1.673,3.734-3.733v-1.809c0-2.061-1.678-3.734-3.734-3.734h-36.606v9.278h36.606V165.306z M20.214,156.029
	c-2.061,0-3.738,1.674-3.738,3.734v1.809c0,2.061,1.677,3.733,3.738,3.733h36.414v-9.276H20.214z M174.046,150.525
	c-0.604-21.659-8.442-39.842-22.711-52.64c-0.329-0.19-0.623-0.446-0.851-0.754c-13.223-11.461-31.647-18.028-50.576-18.028
	c-18.932,0-37.358,6.566-50.581,18.028c-0.229,0.308-0.521,0.565-0.852,0.754c-14.268,12.798-22.105,30.981-22.711,52.64h18.66
	c0.613-15.899,6.606-29.329,17.365-38.893c5.103-4.538,11.096-8.046,17.813-10.433c6.452-2.295,13.284-3.461,20.305-3.461
	c7.017,0,13.849,1.165,20.304,3.461c6.723,2.391,12.715,5.9,17.813,10.433c10.76,9.563,16.749,22.993,17.36,38.893H174.046z
	 M149.884,150.525c-0.604-14.276-5.955-26.28-15.514-34.779c-9.068-8.063-21.311-12.503-34.462-12.503
	c-23.266,0-48.634,14.807-49.98,47.282h6.7c0.128-4.762,4.042-8.597,8.836-8.597c4.792,0,8.708,3.835,8.836,8.597h51.216
	c0.128-4.762,4.041-8.597,8.834-8.597s8.704,3.835,8.832,8.597H149.884z M25.73,121.77c4.064-10.648,10.318-19.876,18.641-27.503
	V84.133H25.73V121.77z M155.443,94.267c8.323,7.627,14.572,16.849,18.639,27.499V84.134h-18.639V94.267z M177.09,78.631V55.576
	h-25.065v23.055H177.09L177.09,78.631z M47.377,78.631V55.576H22.311v23.055H47.377L47.377,78.631z M177.241,50.078l-12.954-19.44
	l-12.956,19.44H177.241z M47.528,50.078l-12.953-19.44l-12.953,19.44H47.528z M167.12,11.93l6.6-2.578l-6.6-2.573V11.93z
	 M37.408,11.93l6.597-2.578l-6.597-2.573V11.93z"/>
</svg>
