<?xml version="1.0" encoding="utf-8"?>
<!-- Generator: Adobe Illustrator 16.0.0, SVG Export Plug-In . SVG Version: 6.00 Build 0)  -->
<!DOCTYPE svg PUBLIC "-//W3C//DTD SVG 1.1//EN" "http://www.w3.org/Graphics/SVG/1.1/DTD/svg11.dtd">
<svg version="1.1" id="Layer_1" xmlns="http://www.w3.org/2000/svg" xmlns:xlink="http://www.w3.org/1999/xlink" x="0px" y="0px"
	 width="56.822px" height="56.415px" viewBox="0 0 56.822 56.415" enable-background="new 0 0 56.822 56.415" xml:space="preserve">
<g>
	<path fill="#FFFFFF" d="M28.711,2.098c-14.7,0-26.63,11.92-26.63,26.629c0,14.711,11.93,26.631,26.63,26.631
		c14.71,0,26.63-11.92,26.63-26.631C55.341,14.018,43.421,2.098,28.711,2.098z M45.72,37.278c-0.409,1.529-1.609,2.729-3.14,3.14
		c-2.76,0.74-13.87,0.74-13.87,0.74s-11.1,0-13.87-0.74c-1.53-0.41-2.73-1.61-3.14-3.14c-0.74-2.771-0.74-8.551-0.74-8.551
		s0-5.77,0.74-8.54c0.41-1.53,1.62-2.73,3.14-3.14c2.77-0.74,13.87-0.74,13.87-0.74s11.11,0,13.87,0.74
		c1.53,0.41,2.74,1.61,3.14,3.14c0.74,2.77,0.74,8.54,0.74,8.54S46.461,34.507,45.72,37.278z"/>
	<polygon fill="#FFFFFF" points="34.391,28.727 25.161,34.057 25.161,23.408 	"/>
</g>
</svg>
